<svg xmlns="http://www.w3.org/2000/svg" xmlns:xlink="http://www.w3.org/1999/xlink" width="35" height="35" viewBox="0 0 35 35"><defs><path id="exsma" d="M413.77 1800.43c.4.4.82.77 1.26 1.1h-12.7a.86.86 0 0 1-.85-.88v-14.3c0-.26.1-.5.3-.67l11.11-9.9a.82.82 0 0 1 1.1 0l8.61 7.67a9.54 9.54 0 0 0-10.28 4.68v-2.12a.86.86 0 0 0-.84-.87h-3.45a.86.86 0 0 0-.84.87v3.55c0 .48.38.87.84.87h3.3c-.22.75-.35 1.53-.39 2.32h-2.9a.86.86 0 0 0-.85.87v3.56c0 .48.38.87.84.87h3.45a.8.8 0 0 0 .49-.19c.46.94 1.06 1.81 1.8 2.57zm17.73 4.06a1.65 1.65 0 0 1-2.39 0l-2.3-2.38a1.77 1.77 0 0 1-.43-1.67l-.63-.65a7.85 7.85 0 0 1-10.79-.59 8.4 8.4 0 0 1-2.36-5.88 8.4 8.4 0 0 1 2.36-5.89 7.9 7.9 0 0 1 11.42 0 8.53 8.53 0 0 1 .56 11.13l.63.64c.56-.15 1.18 0 1.62.45l2.3 2.38c.67.68.67 1.78 0 2.46zm-10.83-4.59c1.7 0 3.3-.68 4.51-1.92a6.74 6.74 0 0 0 0-9.32 6.25 6.25 0 0 0-9.02 0 6.64 6.64 0 0 0-1.87 4.66c0 1.76.66 3.41 1.87 4.66a6.25 6.25 0 0 0 4.51 1.92zm-7.23-25.87l-13.65 12.1c-.7.63-1.77.55-2.38-.18-.6-.72-.53-1.82.18-2.45l14.75-13.09a1.64 1.64 0 0 1 2.2 0l14.76 13.1c.7.62.78 1.72.17 2.44a1.66 1.66 0 0 1-2.37.19z"/></defs><g><g clip-path="url(#clip-4488)" transform="translate(-397 -1770)"><use fill="#0046d4" xlink:href="#exsma"/></g></g></svg>