<svg xmlns="http://www.w3.org/2000/svg" xmlns:xlink="http://www.w3.org/1999/xlink" width="35" height="32" viewBox="0 0 35 32"><defs><path id="4ht3a" d="M1213.4 1787.26c.58-.35 1.46-.8 1.88-.8.34 0 .68.18 1.86.88 1.42.83 1.94 1.08 2.13 1.13l3.94-.98a.4.4 0 0 1 .31.05c.1.06.16.15.18.26l1.13 6.93a.4.4 0 0 1-.28.44s-4.64 1.28-4.76 1.3c.03.22 0 .45-.09.67a1.4 1.4 0 0 1-1.75.76c-.02.12-.05.24-.1.37-.26.69-.93 1.02-1.58.77l-.39-.16-.82 1.38c-.25.34-.65.54-1.1.54a1.8 1.8 0 0 1-1.36-.64l-.2-.3a2.16 2.16 0 0 1-1.64-1c-.6-.01-1.2-.32-1.55-.78a1.71 1.71 0 0 1-.13-.2 1.9 1.9 0 0 1-1.5-.96 1.2 1.2 0 0 1 .06-1.24l-3.18-.84a.4.4 0 0 1-.3-.44l.97-6.11c.02-.11.08-.2.18-.27.1-.06.2-.08.32-.05l4.06 1.03c.14-.03.88-.5 1.37-.8a7.04 7.04 0 0 1 1.96-1.02c.14 0 .26.02.37.08zm5.96 2.35c-.56 0-1.48-.52-2.81-1.3-.52-.3-1.16-.68-1.32-.72a7.84 7.84 0 0 0-2.27 1.42 35.4 35.4 0 0 0-.4 1.86l-.16.84c.13.28.95.66 1.37.59l.61-2.22c.03-.1.12-.42.95-.8a.4.4 0 0 1 .16-.04l.72-.03a.4.4 0 0 1 .21.06c2.36 1.42 5.35 3.07 5.36 3.08.55.42.73 1.08.5 1.74-.09.24-.22.46-.4.63l1.7-.46-.9-5.48c-.85.22-3.07.83-3.32.83zm-5.26 10.01c.15-.22 1.13-1.9 1.26-2.1.09-.16.1-.3.03-.42-.13-.23-.52-.37-.68-.23a.4.4 0 0 1-.5.03.39.39 0 0 1-.13-.47c.03-.06 0-.16-.07-.26-.22-.33-.88-.6-1.2-.08a.4.4 0 0 1-.45.18.4.4 0 0 1-.28-.39c0-.07-.05-.2-.18-.33a.74.74 0 0 0-.65-.24c-.16.03-.38.27-.63.69a.4.4 0 0 1-.47.17.4.4 0 0 1-.27-.42c0-.03-.02-.1-.1-.2-.17-.19-.44-.33-.53-.18l-.67.96s.02.08.11.18c.21.22.54.32.76.16a.4.4 0 0 1 .47 0c.14.09.2.27.15.43-.01.04-.05.15.07.3.14.2.43.33.68.33.07 0 .18-.01.26-.08.14-.1.31-.1.45-.01.14.08.21.24.18.4-.03.14.05.27.12.35.24.28.71.42 1 .27a.4.4 0 0 1 .43.02c.13.1.19.25.15.4a.4.4 0 0 0 .09.36c.1.13.3.22.46.22.04 0 .11 0 .14-.04zm12.9-12.67c.18.14.28.36.28.59v14.68c0 .43-.35.78-.8.78h-23.96a.79.79 0 0 1-.8-.78v-14.68c0-.23.1-.45.28-.6l11.98-10.14a.8.8 0 0 1 1.04 0zm-1.31.95l-11.19-9.48-11.19 9.48v13.54h22.38zm5.92-.9a1.6 1.6 0 0 1-2.24.16l-14.87-12.55-14.87 12.55c-.66.56-1.67.49-2.24-.17-.57-.65-.5-1.64.17-2.2l15.9-13.43c.6-.5 1.48-.5 2.08 0l15.9 13.43c.67.56.74 1.55.17 2.2z"/></defs><g><g clip-path="url(#clip-4504)" transform="translate(-1197 -1771)"><use fill="#0046d4" xlink:href="#4ht3a"/></g></g></svg>